<svg width="16" height="16" viewBox="0 0 16 16" fill="none" xmlns="http://www.w3.org/2000/svg">
<g clip-path="url(#clip0_43_186)">
<rect width="16" height="16" rx="4" fill="#1F362C"/>
<path opacity="0.3" fill-rule="evenodd" clip-rule="evenodd" d="M93 6V39.4644H-17V10.1055C-9.49117 8.03741 -1.68783 7.76418 7.06118 9.28579C10.9997 9.97077 15.9176 11.1172 21.4021 12.3956C46.7439 18.303 84.1799 27.0296 92.963 6.07938C92.9744 6.05219 92.9867 6.02573 93 6Z" fill="#101B16"/>
<path d="M4.53906 5.48047H8.10938C8.19141 5.48047 8.23047 5.51953 8.23047 5.59375V6.80078C8.23047 6.88281 8.19141 6.92188 8.10938 6.92188H6.07812V7.64844H7.68359C7.75 7.64844 7.80078 7.69531 7.78906 7.75391L7.67578 8.87109C7.66406 8.94141 7.62109 8.97656 7.53906 8.97656H6.07812V10.8867C6.07812 10.9336 6.01562 11 5.95703 11H4.53906C4.47656 11 4.42969 10.9453 4.42969 10.8789V5.59375C4.42969 5.54297 4.47656 5.47656 4.53906 5.48047ZM10.2188 5.60156V9.55859H11.707C11.7773 9.55859 11.8125 9.59766 11.8086 9.67188L11.6992 10.8867C11.6875 10.9609 11.6445 11 11.5703 11H8.67969C8.61719 11 8.5625 10.9453 8.5625 10.8867V5.60156C8.5625 5.53906 8.61719 5.47656 8.67969 5.48047H10.0977C10.1602 5.48047 10.2148 5.53516 10.2188 5.60156Z" fill="#FAC66C"/>
</g>
<rect x="0.5" y="0.5" width="15" height="15" rx="3.5" stroke="#FAC66C"/>
<defs>
<clipPath id="clip0_43_186">
<rect width="16" height="16" rx="4" fill="white"/>
</clipPath>
</defs>
</svg>
